/* XPM */
static char *_6c57c43171848b2ff6f21792cf50429YlyIsGYnLDEzkC9y[] = {
/* columns rows colors chars-per-pixel */
"64 64 133 2 ",
"   c None",
".  c #DC930C",
"X  c #DD9614",
"o  c #DF9A1D",
"O  c #DF9C20",
"+  c #E09E26",
"@  c #E19F28",
"#  c #E1A12D",
"$  c #E2A432",
"%  c #E3A739",
"&  c #E3A93D",
"*  c #E4AB43",
"=  c #E5AE4A",
"-  c #E6B04E",
";  c #E6B151",
":  c #E8B457",
">  c #E7B558",
",  c #E8B65C",
"<  c #E8B85F",
"1  c #E9BA63",
"2  c #EABD6C",
"3  c #EBC174",
"4  c #ECC57C",
"5  c #EDC781",
"6  c #EEC985",
"7  c #EFCC8D",
"8  c #EFCE90",
"9  c #F0CF92",
"0  c #F0D196",
"q  c #F1D39C",
"w  c #F3D7A5",
"e  c #F2D6A2",
"r  c #F3D8A6",
"t  c #F2D8A7",
"y  c #F3D8A6",
"u  c #F3D8A8",
"i  c #F3D9A9",
"p  c #F3D9AA",
"a  c #F4DAAC",
"s  c #F4DAAD",
"d  c #F4DBAD",
"f  c #F4DBAE",
"g  c #F4DCAF",
"h  c #F3DAAB",
"j  c #F4DCB0",
"k  c #F4DCB1",
"l  c #F4DDB1",
"z  c #F4DDB2",
"x  c #F5DEB4",
"c  c #F4DEB5",
"v  c #F5DEB5",
"b  c #F5DEB5",
"n  c #F5DFB8",
"m  c #F5E0B8",
"M  c #F5E0BA",
"N  c #F6E1BA",
"B  c #F6E1BB",
"V  c #F6E1BC",
"C  c #F6E2BD",
"Z  c #F6E1BC",
"A  c #F6E4C1",
"S  c #F7E4C2",
"D  c #F7E4C3",
"F  c #F7E5C4",
"G  c #F7E5C5",
"H  c #F7E5C5",
"J  c #F7E7C8",
"K  c #F7E7C9",
"L  c #F8E7C9",
"P  c #F7E8CB",
"I  c #F8E8CA",
"U  c #F8E9CC",
"Y  c #F9E8CD",
"T  c #F9E9CD",
"R  c #F8E9CE",
"E  c #F9E9CE",
"W  c #F9EACF",
"Q  c #F8E9CD",
"!  c #F9EAD0",
"~  c #F9EBD2",
"^  c #F9ECD4",
"/  c #F9EDD5",
"(  c #F9EDD6",
")  c #F9EDD7",
"_  c #FAEDD6",
"`  c #F9EBD3",
"'  c #FAEED9",
"]  c #FAEFDC",
"[  c #FAEFDA",
"{  c #FAF0DD",
"}  c #FBF1DF",
"|  c #FBF0DD",
" . c #FBF1E0",
".. c #FBF2E2",
"X. c #FCF3E5",
"o. c #FCF4E6",
"O. c #FCF4E7",
"+. c #FBF2E2",
"@. c #FCF5E8",
"#. c #FCF5E9",
"$. c #FCF6EA",
"%. c #FCF6EB",
"&. c #FDF6EB",
"*. c #FDF7ED",
"=. c #FDF7EE",
"-. c #FDF6EB",
";. c #FDF8EE",
":. c #FDF8EF",
">. c #FDF8EF",
",. c #FDF8F0",
"<. c #FDF9F0",
"1. c #FDF9F1",
"2. c #FEF9F2",
"3. c #FEFAF3",
"4. c #FDFAF4",
"5. c #FEFAF4",
"6. c #FEFAF5",
"7. c #FEFBF6",
"8. c #FEFBF7",
"9. c #FEFCF7",
"0. c #FEFAF4",
"q. c #FEFCF8",
"w. c #FEFCF9",
"e. c #FFFCF9",
"r. c #FEFDF9",
"t. c #FEFDFA",
"y. c #FFFDFA",
"u. c #FFFDFB",
"i. c #FEFEFB",
"p. c #FFFEFC",
"a. c #FFFEFD",
"s. c white",
"d. c #FFFFFF",
/* pixels */
"                                                                                                                                ",
"                                                          ; ; ; ; ; ;                                                           ",
"                                                - ; ; ; ; ; ; ; - ; - ; - ; ; ;                                                 ",
"                                          ; ; ; ; ; ; - - ; ; ; ; ; ; ; ; ; ; - - ; ;                                           ",
"                                    ; ; ; ; - ; ; ; - ; ; ; - - - - ; ; ; - - ; ; ; ; ; - ;                                     ",
"                                  ; ; - - ; ; ; - ; : * $ # $ $ $ $ $ $ % * = ; ; ; ; - ; ; ; ;                                 ",
"                              ; ; ; ; = ; ; - ; ; - * 1 8 e l c c l e 7 4 > * # % = ; ; ; ; ; - ;                               ",
"                          ; - ; ; ; * $ $ * : ; ; ; # w s.s.s.s.s.s.s.s.s.9.] u 3 * # * ; - ; ; ; ; ;                           ",
"                        ; ; ; ; ; % , e q > & ; ; ; # e s.s.s.s.s.s.s.s.s.s.s.s.s.{ 0 - # * : - ; ; ; ;                         ",
"                      ; ; - ; ; % - 2.s.s.=.: * ; ; # e s.s._ 8 q q u C ) 4.s.s.s.s.s.=.0 * $ - ; - ; ; ;                       ",
"                    ; ; ; ; : % % ..s.s.s.s.u $ ; ; # e s.s.0 . # $ $ % & > 4 c 2.s.s.s.s...3 # * ; ; ; ; -                     ",
"                  ; ; - ; ; % % ! s.s.s.s.s.h # - ; $ e s.s.e $ ; ; - - = * % # - 8 X.s.s.s.s.h * % ; ; ; ; ;                   ",
"                - ; ; ; : $ - _ s.s.s.s.s.s., & ; ; # e s.s.e # : * % * = ; ; ; * # * 8 s.s.s.s.{ ; $ ; - ; ; ;                 ",
"              ; ; ; ; ; # , :.s.s.s.$.c 0 1 & : = $ o t s.s.q $ = 1 3 , ; ; ; - ; ; * # : R s.s.s.4.< $ : ; - ; ;               ",
"              ; ; ; : $ > 9.s.s.s.w * # $ * = # * 4 n 4.s.s.q # # u s.r.q $ ; ; ; ; ; ; % % e s.s.s.y.: $ ; ; ; ;               ",
"            ; ; ; ; % = :.s.s.s.5 O * ; ; % * 7 ..s.s.s.s.s.q $ # e s.s.l $ ; ; ; - ; ; ; * # 6 s.s.s.:.= & ; ; - ;             ",
"            ; ; ; = $ / s.s.s.4 O ; : = O 2 ] s.s.s.s.s.s.s.q $ $ e s.s.r $ ; - ; : = $ $ * ; O 4 s.s.s._ $ = ; ; ; -           ",
"          ; ; - ; # 0 d.s.s.e O ; : * # 8 s.s.s.s.s.h J s.s.q $ # q s.s.u $ ; ; : & = 9 q 1 & ; @ q s.s.s.0 @ ; ; ; ;           ",
"        ; - ; ; % : s.s.s.A # = : * $ g s.s.s.s.l , . 8 s.s.e $ $ e s.s.u $ ; ; * - ..s.s.4.> * = @ A s.s.s., % ; ; - ;         ",
"        ; ; ; ; # J s.s.;.* & ; * $ m s.s.s.X.2 # % $ e s.s.q O o e s.s.u $ - ; # t s.s.s.s.h # ; * & =.s.s.I # ; ; ; ;         ",
"        ; ; ; % 3 d.d.s.4 # : - O u s.s.s.R * # - : O 0 s.s.d & * m s.s.e # - ; # h s.s.s.s.$.& = ; # 4 s.s.s.3 % ; - ;         ",
"      ; ; - ; # R d.d.R # - ; # 7 s.s.s.J $ % : : % # M s.s.y.4.d.s.s.s.D # % ; * , 2.s.s.s.s.8 # ; ; # T s.s.T # ; ; ; ;       ",
"      ; ; - & 1 d.d.d.3 $ ; & : s.s.s.{ % % ; ; # ; T s.s.s.s.s.s.s.s.s.s.R : $ : & : h s.s.s.y.; & ; $ 2 s.s.s.1 & ; ; ;       ",
"      ; ; ; # r d.d./ $ ; ; # A s.s.s.> $ : ; # 3 9.s.s.s.s.4.$.X.r.s.s.s.s.4.6 * ; & @ 2 s.s.s.M # ; ; % ` s.s.u # ; - ; ;     ",
"    ; ; - - & ..s.s.7 # : % 1 s.s.s.q O ; ; # 4 s.s.s.s.M 4 : - = > 4 G s.s.s.,.* = ; ; o q s.s.s.1 & ; # 6 s.s.o.* = ; ; ;     ",
"    ; - ; & 2 s.s.y.: * ; # h s.s.2.* = ; % 1 s.s.s.2.2 # $ * * = * # $ 3 $.) = * ; ; - * * $.s.s.j # ; * : y.s.s.2 % ; ; ;     ",
"    ; ; ; $ 8 s.s.! % - = * $.s.s.e # ; = & $.s.s.2.- # ; ; ; ; - ; ; - $ ; = * : = ; ; : O w s.s.$.= = ; % T s.s.9 $ - - ;     ",
"    ; - ; # x s.s.u # ; & 2 s.s.s.2 % ; # 7 s.s.s.1 # ; ; ; - ; - ; ; ; ; = * ; ; ; ; ; = & 1 s.s.s.2 & ; # e s.s.c $ ; ; ;     ",
"    ; ; - % R s.s.6 $ ; $ 8 s.s.] & - - % T s.s.x O ; ; ; ; ; - ; ; - ; ; ; ; - ; ; ; ; ; = * ..s.s.8 $ ; $ 6 s.s.! & - ; ; ;   ",
"  ; ; - = = ..s.s.2 & ; $ c s.s.r # ; * > y.s.s.1 % ; ; ; - ; ; - ; ; ; ; ; ; ; ; ; ; = ; ; $ C s.s.h $ - % 2 s.s...= = ; - ;   ",
"  ; - ; * ; =.s.s.< * = % G s.s.0 $ - % 3 s.s.X.* = ; ; ; ; ; - ; ; - ; - ; ; - ; ; ; ; ; ; $ 8 s.s.D % - * 1 s.s.:.; * ; - ;   ",
"  ; ; ; * : 4.s.2.: * - & R s.s.6 $ ; % 6 s.s.J % ; ; ; ; - ; ; - ; ; ; ; ; ; ; ; = ; ; - ; $ 5 s.s.J % - * : 4.s.2.: * ; ; ;   ",
"  ; ; ; * : 2.s.,.: * - & ! s.s.6 $ - % 6 s.s.J % - ; ; ; ; ; ; ; ; ; ; = ; ; ; ; ; - ; - ; $ 5 s.s.J & - * > 4.s.2.: * ; ; -   ",
"  ; - ; * : ;.s.y., * - % J s.s.8 $ - % 3 s.s.] * = ; ; - ; - ; - ; ; - ; ; ; ; ; - ; ; ; ; $ 8 s.s.H % - * , s.s.,.: * ; ; ;   ",
"  ; - ; = = X.s.s.2 % ; % n s.s.e # ; * < s.s.s., & ; ; ; ; - ; ; ; - ; ; ; ; ; ; ; ; ; ; ; $ l s.s.c $ ; % 2 s.s.X.= = ; - ;   ",
"    ; - - & ! s.s.4 % - $ q s.s.! % - - % ] s.s.t O ; ; - ; ; ; ; ; ; ; ; ; = ; ; ; - ; - - & ] s.s.q $ ; $ 5 s.s.` & = ; ; ;   ",
"    ; ; ; $ m s.s.q # ; % 4 s.s.s.< & ; # 0 s.s.r.; % ; ; ; ; ; ; ; ; ; ; = = ; ; ; ; - - * > s.s.s.4 % = # e s.s.M $ ; ; ;     ",
"    ; - ; # 0 s.s.G $ ; * - 4.s.s.9 # ; = * 9.s.s.{ % $ ; ; ; ; ; ; ; > & * * = ; ; ; ; ; # 8 s.s.2.= = ; % G s.s.q # ; - ;     ",
"    ; ; ; % 3 s.s.4.; * ; # M s.s. .% = ; # 4 s.s.s.) ; # & - - = = % O : P c $ = ; ; ; = % { s.s.C $ ; * ; 4.s.s.3 % - - ;     ",
"    ; - ; = * %.s.s.6 $ ; % 2 s.s.s.6 @ : ; # r s.s.s.s.0 > & % % * 1 q w.s.s.A % - ; ; # 6 s.s.s.2 % ; $ 4 s.s.=.* = ; ; ;     ",
"      ; ; ; # c s.s.J # ; ; # J s.s.=.* # - = # 0 d.d.d.d.d.) R P ) s.s.s.s.s.u * - : & * ,.s.s._ $ ; ; # G s.s.c $ ; ; ; ;     ",
"      ; - ; % 3 s.s.s.1 % ; % < s.s.s.#.3 % = - # 2 ..d.d.d.d.d.s.s.s.s.s...1 # - ; * # J d.s.s.1 % ; % < s.s.s.3 % - ; ;       ",
"      ; ; ; - % ] s.s.C # - ; # x s.s.s.s.C * = ; $ & / d.d.d.d.s.s.s.s...* # ; ; * O l d.d.d.q # : - @ C s.s.{ % - ; ; ;       ",
"        - - ; # 5 s.s.s.2 $ : & ; 8.s.s.s.s.8 $ ; > O q d.d.H 2 3 J s.s.e O > ; & $ h s.d.d.A # = ; % 1 s.s.s.6 # ; - ;         ",
"        ; - ; - % ] s.s.] $ * : # T s.s.s.s.e # ; ; # q d.d.0 . . q d.d.t $ * # = J s.s.s./ % * : = $ { s.s...% = - ; -         ",
"        ; ; ; ; $ 2 s.s.s.h O : % 5 s.s.s.s., * - ; $ q d.d.e $ $ w d.d.q . * 7 ,.s.s.s.` & & : - O u s.s.s.2 $ ; ; ; ;         ",
"          - ; - ; # h s.s.s.4 O = * 8 ` G 2 % ; ; ; $ q d.d.e $ $ e d.d.G 7 X.d.s.s.s.c % % : : # 5 s.s.s.c # ; ; ; ;           ",
"          ; ; ; ; * % $.s.s.s.1 # - % * % % : - ; ; # e d.d.e $ # e d.d.s.s.d.d.s.s.7 # * : ; O 1 s.s.s.=.% * ; ; ; ;           ",
"            ; ; - ; % > s.s.s.2.< # = = = ; ; ; - ; # w s.s.e $ # e s.s.s.s.s.4.j > # = : = # 1 2.s.s.s.1 % ; ; ; ;             ",
"              ; ; ; : # 3 s.s.s.s.6 # * : ; ; ; ; ; # e s.s.h O $ q s.s.s.{ 0 : # * * % # # 5 s.s.s.s.3 # ; ; - ;               ",
"              ; ; ; ; ; # 3 s.s.s.s.u * # = ; ; ; ; = > 6 w 4 * $ q s.s.C $ # * : * ; 6 0 R s.s.s.s.3 # ; ; - ; -               ",
"                ; ; - ; ; # 2 y.s.s.s.X.3 % $ = ; ; ; = $ $ * : $ e s.s.w @ ; ; * ; $.s.s.s.s.s.y.1 # ; ; ; ; ;                 ",
"                  ; - ; ; ; # > ! s.s.s.s.G 3 & # & = - ; ; = ; $ r s.s.u $ ; ; # w s.s.s.s.s.:.> # ; ; ; ; ;                   ",
"                    ; ; ; ; : % % 8 y.s.s.s.s.^ 0 1 * $ # $ % % X e s.s.u $ ; ; $ w s.s.s.s.2.- $ : ; - ; ;                     ",
"                      ; - ; - ; = # > c s.s.s.s.s.s.] c q 6 4 3 1 A s.s.u $ ; ; * > s.s.s.s.1 # ; ; - ; ;                       ",
"                        ; ; ; ; - : % $ 2 c y.s.s.s.s.s.s.s.s.s.s.s.s.s.r $ ; ; ; % 1 D J 2 $ : ; ; ; ;                         ",
"                          ; ; - ; ; ; ; % $ > 8 J 2.s.s.s.s.s.s.s.s.s.s.c # - ; ; ; & % % & ; ; ; ; ;                           ",
"                              ; ; - ; - ; ; * # % : 3 0 l G ! ] ] _ J m 4 & - ; ; ; ; - = ; - ; ;                               ",
"                                ; ; - ; - - ; ; - * % # $ % & * * & & % & : ; ; ; - - ; ; ; ; ;                                 ",
"                                    ; ; ; ; ; ; ; ; ; ; ; - = = = = - - ; ; - ; ; ; ; ; ; ;                                     ",
"                                          ; ; ; ; - ; ; ; ; - ; ; ; ; ; ; ; ; - ; - ;                                           ",
"                                              ; ; ; - ; ; - ; ; ; - ; - ; ; ; ; ;                                               ",
"                                                        ; ; ; ; ; - ; ;                                                         ",
"                                                                                                                                "
};
