/* XPM */
static char *_25f4ed4a19c4898d56757afb413fc6fQf2IgQdzKSqQsmDk[] = {
/* columns rows colors chars-per-pixel */
"16 16 139 2 ",
"   c None",
".  c #DF9B1E",
"X  c #DF9B1F",
"o  c #E1A12C",
"O  c #E1A12D",
"+  c #E1A22E",
"@  c #E1A22F",
"#  c #E1A330",
"$  c #E2A230",
"%  c #E2A330",
"&  c #E2A331",
"*  c #E2A432",
"=  c #E2A433",
"-  c #E2A434",
";  c #E2A534",
":  c #E2A536",
">  c #E2A637",
",  c #E3A637",
"<  c #E3A638",
"1  c #E3A739",
"2  c #E3A93D",
"3  c #E4A93E",
"4  c #E4AA3F",
"5  c #E4AA41",
"6  c #E4AB42",
"7  c #E4AC44",
"8  c #E5AC45",
"9  c #E5AC46",
"0  c #E5AD48",
"q  c #E5AF4B",
"w  c #E5AF4C",
"e  c #E6AF4C",
"r  c #E6AF4D",
"t  c #E5B04D",
"y  c #E6B04D",
"u  c #E5B04E",
"i  c #E6B04E",
"p  c #E6B354",
"a  c #E7B354",
"s  c #E7B456",
"d  c #E7B457",
"f  c #E8B75D",
"g  c #E8B75E",
"h  c #E8B860",
"j  c #E8B961",
"k  c #E9B962",
"l  c #E8B963",
"z  c #E9BA64",
"x  c #E9BB65",
"c  c #E9BB66",
"v  c #E9BB67",
"b  c #EABD6B",
"n  c #EBC071",
"m  c #EBC174",
"M  c #EBC277",
"N  c #ECC174",
"B  c #ECC276",
"V  c #ECC37A",
"C  c #EDC67F",
"Z  c #EDC680",
"A  c #EDC781",
"S  c #EDC884",
"D  c #EDC885",
"F  c #EDC985",
"G  c #EDC986",
"H  c #EECA87",
"J  c #EECA89",
"K  c #EECB89",
"L  c #EFCD90",
"P  c #EFCF92",
"I  c #EFCF93",
"U  c #F0CF94",
"Y  c #F0D094",
"T  c #F0D096",
"R  c #F0D197",
"E  c #F0D198",
"W  c #F0D299",
"Q  c #F1D29A",
"!  c #F1D29B",
"~  c #F1D39B",
"^  c #F1D39C",
"/  c #F1D39D",
"(  c #F1D49F",
")  c #F2D6A2",
"_  c #F2D6A3",
"`  c #F2D7A5",
"'  c #F2D7A6",
"]  c #F3D9A8",
"[  c #F3D9AB",
"{  c #F3DAAB",
"}  c #F3DBAF",
"|  c #F3DCAF",
" . c #F3DCB0",
".. c #F4DCB0",
"X. c #F4DCB1",
"o. c #F4DDB3",
"O. c #F4DEB4",
"+. c #F4DEB5",
"@. c #F5DEB5",
"#. c #F5DEB6",
"$. c #F4DFB7",
"%. c #F5DFB7",
"&. c #F5E0BA",
"*. c #F6E1BB",
"=. c #F6E2BE",
"-. c #F6E3BE",
";. c #F6E2BF",
":. c #F6E3BF",
">. c #F6E3C0",
",. c #F6E3C1",
"<. c #F6E4C2",
"1. c #F7E4C3",
"2. c #F7E5C4",
"3. c #F7E6C6",
"4. c #F7E6C7",
"5. c #F8E9CE",
"6. c #F9EACF",
"7. c #F9EBD2",
"8. c #F9EBD3",
"9. c #F9EDD6",
"0. c #F9EED8",
"q. c #FAEFDB",
"w. c #FAF0DC",
"e. c #FAF0DD",
"r. c #FBF1E0",
"t. c #FBF2E2",
"y. c #FBF2E3",
"u. c #FBF3E4",
"i. c #FCF4E7",
"p. c #FCF5E8",
"a. c #FCF7EB",
"s. c #FCF6EC",
"d. c #FDF7EC",
"f. c #FCF7ED",
"g. c #FCF7EE",
"h. c #FDF8EE",
"j. c #FEFCF8",
"k. c #FEFDFA",
"l. c white",
/* pixels */
"            y : * 1             ",
"        2 5 p ^ +.! s @         ",
"      @ u.` y j.G ..e.[ :       ",
"    : 7.,.v :...y e : 3.9.:     ",
"  @ *.4.5 7.4.) 1.b K N ,.:.o   ",
"  g t.e h.k K p.g.( T l.0 t.k   ",
": } ^ U ) n p.a b ( . +.I ^ | = ",
"@ :.G ..N 6.k : 5 1 3 A +.A :.* ",
"@ :.G X.m 6.g 1 7 1 3 A +.G :.@ ",
"* X.! R I M i.0 v T . *.T ! ..= ",
"  v r.e l.V ^ g.p.P x h.0 e.v   ",
"  @ ,.%.A I k 3.[ -.0.7 1.,.@   ",
"    1 0.:.@ y s ..4.v +.w.:     ",
"      1 +.e.[ C l.y _ g.*       ",
"        @ g ` %.` s 7 5         ",
"            : * * y             "
};
