/* XPM */
static char *_38e48779d5f42daab522e8239ba95b9s2IhDz8GpSPisizF[] = {
/* columns rows colors chars-per-pixel */
"33 32 124 2 ",
"   c None",
".  c #DA8C02",
"X  c #DC9107",
"o  c #DC930C",
"O  c #DD9613",
"+  c #DE9817",
"@  c #DE991A",
"#  c #DF9C21",
"$  c #E09E25",
"%  c #E19F28",
"&  c #E1A12D",
"*  c #E2A433",
"=  c #E3A739",
"-  c #E3A93D",
";  c #E4AB43",
":  c #E5AE4A",
">  c #E6B04E",
",  c #E6B251",
"<  c #E7B558",
"1  c #E8B75D",
"2  c #E8B85F",
"3  c #E9BA64",
"4  c #EABD6B",
"5  c #EBC173",
"6  c #EDC57C",
"7  c #EDC782",
"8  c #EEC985",
"9  c #EFCC8B",
"0  c #EFCE91",
"q  c #F0CE90",
"w  c #F0D095",
"e  c #F1D39B",
"r  c #F2D6A2",
"t  c #F2D8A7",
"y  c #F4DBAE",
"u  c #F4DCAF",
"i  c #F3DAAB",
"p  c #F4DCB1",
"a  c #F5DDB1",
"s  c #F4DDB2",
"d  c #F4DDB3",
"f  c #F4DEB5",
"g  c #F4DEB6",
"h  c #F5DFB6",
"j  c #F4DEB5",
"k  c #F5DFB8",
"l  c #F5E0BA",
"z  c #F6E1BB",
"x  c #F5E1BC",
"c  c #F6E1BC",
"v  c #F5E2BD",
"b  c #F6E2BE",
"n  c #F6E2BF",
"m  c #F6E3C0",
"M  c #F6E4C1",
"N  c #F7E4C3",
"B  c #F7E5C4",
"V  c #F7E5C5",
"C  c #F7E6C7",
"Z  c #F7E5C5",
"A  c #F7E6C8",
"S  c #F7E7C8",
"D  c #F7E7CA",
"F  c #F8E7C9",
"G  c #F8E7C8",
"H  c #F8E8CA",
"J  c #F8E9CD",
"K  c #F8EACF",
"L  c #F8E8CB",
"P  c #F8EAD0",
"I  c #F9EAD0",
"U  c #F8EAD1",
"Y  c #F9EBD2",
"T  c #F9ECD4",
"R  c #F9ECD5",
"E  c #F9EDD7",
"W  c #FAEDD7",
"Q  c #F9EED7",
"!  c #F9ECD3",
"~  c #FAEDD8",
"^  c #FAEED9",
"/  c #FAEFDB",
"(  c #F9EED9",
")  c #FAF0DC",
"_  c #FAF0DD",
"`  c #FAF0DE",
"'  c #FBF1DF",
"]  c #FAF0DE",
"[  c #FBF2E1",
"{  c #FBF2E2",
"}  c #FBF3E3",
"|  c #FBF4E5",
" . c #FBF4E6",
".. c #FBF4E7",
"X. c #FCF4E6",
"o. c #FBF2E2",
"O. c #FCF5E8",
"+. c #FCF5E9",
"@. c #FDF7EC",
"#. c #FDF7ED",
"$. c #FDF7EE",
"%. c #FDF7ED",
"&. c #FDF8EE",
"*. c #FDF8EF",
"=. c #FDF9F1",
"-. c #FDF9F2",
";. c #FDF9F3",
":. c #FEFAF4",
">. c #FEFAF5",
",. c #FEFBF5",
"<. c #FEFBF6",
"1. c #FEFBF7",
"2. c #FEFCF7",
"3. c #FEFBF5",
"4. c #FEFDFA",
"5. c #FEFDFB",
"6. c #FEFDFC",
"7. c #FFFDFC",
"8. c #FFFEFC",
"9. c #FEFEFD",
"0. c #FFFEFD",
"q. c #FFFEFE",
"w. c white",
"e. c #FFFFFF",
/* pixels */
"                                                                  ",
"                        > , > , , > , ,                           ",
"                    > , , , = * & * * - : , ,                     ",
"                < - * : , : 7 e i t 8 3 ; * ; , ,                 ",
"              , * 4 0 , ; : >.0.0.0.0.0.*.e > & : ,               ",
"          , < & > 0.0.l # : 0./ : 3 5 t *.0.0.8 * ; <             ",
"          , * , >.0.0.e @ & 0.L # # % * - 5 *.0.z * - ,           ",
"        , * < 0.0.9 , # , r 0.g * L e ; : % * i 0.I * ; ,         ",
"      , - ; >.0.4 o & e 0.0.0.t * 0.' & > ; - + r 0.N & > ,       ",
"      , & K 0.7 o > ' 0.L 3 0.k @ 0.B * ; t | 6 X v 0.9 & ,       ",
"    , * 5 0.v + - @.0.9 @ O 5.Q 3 0.z O ; 0.0.| % * >.0.; ; ,     ",
"    > * ' 0.: @ B 0.9 + & t 0.0.0.0.>.6 * 5 | 0.7 X 8 0.w & ,     ",
"  , - 1 0.B O 3 0.D @ * B 0.K 9 8 e 5.0.3 @ ; 5.;.* - 0.$.= >     ",
"  , * 0 0.6 O v 0.3 + d 0.t & & * & 2 7 , , % e 0.6 O v 0.1 ;     ",
"  , & z 0., * 5.%.& , 0./ % ; , , , ; * , , - < 0.g o 9 0.6 *     ",
"  > * Q 0.- , 0.m O 8 0.7 & , , > , , , > , : : 0./ # 5 0.0 *     ",
"  > = / 0.* < 0.p O w 0.4 = > , , , > , > , : ; 5.[ # 4 0.e *     ",
"  , * U 0.- > 0.B @ 6 0.0 % , , , > , > , , : : 0.U @ 5 0.0 *     ",
"  , * p 0.< & ;.2.* ; 0.*.* * , , > = * > , = 3 0.t o w 0.5 =     ",
"  , * 8 0.8 o i 0.5 o 0 0.P ; & % * 6 i < , # p 0.5 @ U 0., ;     ",
"    ; , 0./ @ , 0.[ * @ r 0.>.g p m 0.0.2 # , 0.[ % : 0.' * >     ",
"    , & D 0.3 o t 0.[ 3 @ 7 0.0.0.0.| , # - @.0.3 o r 0.7 * ,     ",
"    , - 2 0./ @ > 0.0.M @ * 5.D ; 0.p . < +.0.0 O > 0.*.* >       ",
"      , % i 0.e o r D 4 = : 0.v # 5.Q r 0.0.9 @ & / 0.4 * ,       ",
"      , ; * / 0.9 O & ; > : 0./ & [ 0.0.H , X & F 0.r & ,         ",
"        , - - ' 0.t = & ; : t 8 ; 5.[ < % : 9 ' 0.t & : ,         ",
"          , = - v 0.>.8 ; * O O = 0.B @ - $.0.0.e % ; ,           ",
"            , ; * 8 >.0.0.B e 6 8 0.B & - K 0.t % : ,             ",
"              , > & ; 8 Q 0.0.0.0.0.g * ; , 5 ; : ,               ",
"                , , : * * , 4 7 8 6 2 : < ; = >                   ",
"                    , , , ; - * * = ; , , >                       ",
"                                                                  "
};
