<?xml version="1.0"?>
<svg xmlns="http://www.w3.org/2000/svg" xmlns:xlink="http://www.w3.org/1999/xlink" xmlns:svgjs="http://svgjs.com/svgjs" version="1.1" width="512" height="512" x="0" y="0" viewBox="0 0 32 32" style="enable-background:new 0 0 512 512" xml:space="preserve" class=""><g><g xmlns="http://www.w3.org/2000/svg" id="Layer_2" data-name="Layer 2"><path d="m29.92 17.38a1 1 0 0 1 -.92.62h-3v10a3 3 0 0 1 -3 3h-4a1 1 0 0 1 -1-1v-6a1 1 0 0 0 -1-1h-2a1 1 0 0 0 -1 1v6a1 1 0 0 1 -1 1h-4a3 3 0 0 1 -3-3v-10h-3a1 1 0 0 1 -.92-.62 1 1 0 0 1 .21-1.09l13-13a1 1 0 0 1 1.42 0l13 13a1 1 0 0 1 .21 1.09z" fill="#ffffff" data-original="#000000" style=""/></g></g></svg>
