<?xml version="1.0" encoding="utf-8"?>
<!-- Generator: Adobe Illustrator 24.1.1, SVG Export Plug-In . SVG Version: 6.00 Build 0)  -->
<!DOCTYPE svg PUBLIC "-//W3C//DTD SVG 1.1//EN" "http://www.w3.org/Graphics/SVG/1.1/DTD/svg11.dtd" [
	<!ENTITY ns_extend "http://ns.adobe.com/Extensibility/1.0/">
	<!ENTITY ns_ai "http://ns.adobe.com/AdobeIllustrator/10.0/">
	<!ENTITY ns_graphs "http://ns.adobe.com/Graphs/1.0/">
	<!ENTITY ns_vars "http://ns.adobe.com/Variables/1.0/">
	<!ENTITY ns_imrep "http://ns.adobe.com/ImageReplacement/1.0/">
	<!ENTITY ns_sfw "http://ns.adobe.com/SaveForWeb/1.0/">
	<!ENTITY ns_custom "http://ns.adobe.com/GenericCustomNamespace/1.0/">
	<!ENTITY ns_adobe_xpath "http://ns.adobe.com/XPath/1.0/">
]>
<svg version="1.1" id="ic_empty_multisend" xmlns:x="&ns_extend;" xmlns:i="&ns_ai;" xmlns:graph="&ns_graphs;"
	 xmlns="http://www.w3.org/2000/svg" xmlns:xlink="http://www.w3.org/1999/xlink" x="0px" y="0px" viewBox="0 0 100 100"
	 style="enable-background:new 0 0 100 100;" xml:space="preserve">
<style type="text/css">
	.st0{fill:none;}
	.st1{fill:#D6D6D6;}
	.st2{fill:#666666;}
</style>
<metadata>
	<sfw  xmlns="&ns_sfw;">
		<slices></slices>
		<sliceSourceBounds  bottomLeftOrigin="true" height="100" width="100" x="0" y="0"></sliceSourceBounds>
	</sfw>
</metadata>
<path id="Rectangle_4690" class="st0" d="M0,0h100v100H0V0z"/>
<g>
	<rect x="16.1" y="66.6" class="st1" width="5.5" height="11.3"/>
	<rect x="47.2" y="66.6" class="st1" width="5.5" height="11.3"/>
	<rect x="78.3" y="66.6" class="st1" width="5.5" height="11.3"/>
	<g>
		<path class="st2" d="M49.9,44.5c11.3,0,20.4-9.2,20.4-20.4c0-11.3-9.2-20.4-20.4-20.4c-11.3,0-20.4,9.2-20.4,20.4
			C29.5,35.4,38.6,44.5,49.9,44.5z M49.9,8C58.8,8,66,15.2,66,24.1s-7.2,16.1-16.1,16.1S33.8,33,33.8,24.1S41,8,49.9,8z"/>
		<path class="st2" d="M50.1,18.1L50.1,18.1L50.1,18.1L50.1,18.1c1.6,0,3.1,0.6,4.2,1.7c0.6,0.6,1,1.2,1.3,2l2.7-2.7
			c0.3-0.3,0.4-0.5,0.6-0.8c0.2-0.4,0.3-0.8,0.3-1.2c0-1.3-1.1-2.4-2.4-2.4H40.6v4.8h5.6C47.2,18.6,48.6,18.1,50.1,18.1z"/>
		<path class="st2" d="M50.1,27.2c1.7,0,3.2-1.4,3.2-3.2c0-1.7-1.4-3.2-3.2-3.2l0,0c-1.7,0-3.2,1.4-3.2,3.2
			C46.9,25.8,48.3,27.2,50.1,27.2L50.1,27.2z"/>
		<path class="st2" d="M50.1,30c-2.5,0-4.7-1.6-5.6-3.9l-3,3c-0.3,0.3-0.4,0.5-0.6,0.8c-0.2,0.4-0.3,0.8-0.3,1.2
			c0,1.3,1.1,2.4,2.4,2.4h16.2v-4.8h-5.4C52.8,29.5,51.5,30,50.1,30z"/>
		<path class="st2" d="M26.4,66.3L26.4,66.3h-3.9c-0.2,0-0.3-0.1-0.5-0.2c-0.3-0.3-0.8-0.5-1.2-0.5l0,0h-4l0,0
			c-0.5,0-0.9,0.2-1.2,0.5c-0.1,0.1-0.3,0.2-0.5,0.2h-3.9l0,0c-1.3,0-2.4,1.1-2.4,2.4V94c0,1.3,1.1,2.4,2.4,2.4l0,0h15.3l0,0
			c1.3,0,2.4-1.1,2.4-2.4V68.7C28.9,67.3,27.8,66.3,26.4,66.3z M16.7,67.3l0.3-0.1h3.6l0.3,0.1l0,0v9.5c0,0.2-0.1,0.3-0.2,0.5
			c-0.1,0.1-0.3,0.2-0.4,0.2h-1.4h-1.4c-0.2,0-0.3-0.1-0.4-0.2c-0.1-0.1-0.2-0.3-0.2-0.5L16.7,67.3L16.7,67.3z M26.5,94.6h-7.7h-7.7
			c-0.4,0-0.7-0.3-0.7-0.7l0.1-25.3c0-0.2,0.1-0.3,0.2-0.4c0.1-0.1,0.3-0.2,0.4-0.2h3.2c0.4,0,0.7,0.3,0.7,0.7v8.2l0,0l0,0
			c0,1.3,1.1,2.4,2.4,2.4l0,0h2.7l0,0c1.3,0,2.4-1.1,2.4-2.4l0,0l0,0v-8.2c0-0.4,0.3-0.7,0.7-0.7h3.2c0.2,0,0.3,0.1,0.4,0.2
			c0.1,0.1,0.2,0.3,0.2,0.4l0.1,25.3C27.1,94.3,26.9,94.6,26.5,94.6z"/>
		<path class="st2" d="M18.8,76.4L18.8,76.4c0.6,0,1.2-0.5,1.2-1.2c0-0.6-0.5-1.2-1.2-1.2l0,0c-0.6,0-1.2,0.5-1.2,1.2
			S18.2,76.4,18.8,76.4z"/>
		<path class="st2" d="M57.5,66.3L57.5,66.3h-3.9c-0.2,0-0.3-0.1-0.5-0.2c-0.3-0.3-0.8-0.5-1.2-0.5l0,0h-4l0,0
			c-0.5,0-0.9,0.2-1.2,0.5c-0.1,0.1-0.3,0.2-0.5,0.2h-3.9l0,0c-1.3,0-2.4,1.1-2.4,2.4V94c0,1.3,1.1,2.4,2.4,2.4l0,0h15.3l0,0
			c1.3,0,2.4-1.1,2.4-2.4V68.7C59.9,67.3,58.9,66.3,57.5,66.3z M47.8,67.3l0.3-0.1h3.6l0.3,0.1v9.5c0,0.2-0.1,0.3-0.2,0.5
			c-0.1,0.1-0.3,0.2-0.4,0.2H50c-0.2,0-0.4,0-0.6,0c-0.5,0-0.9,0.1-1.3-0.2c-0.3-0.3-0.2-0.8-0.2-1.2c0-0.5,0-1.1,0-1.6
			c0-1.4,0-2.8,0-4.2C47.9,69.3,47.9,68.4,47.8,67.3C47.8,67.4,47.8,67.3,47.8,67.3z M57.6,94.6h-7.7h-7.7c-0.4,0-0.7-0.3-0.7-0.7
			l0.1-25.3c0-0.2,0.1-0.3,0.2-0.4c0.1-0.1,0.3-0.2,0.4-0.2h3.2c0.4,0,0.7,0.3,0.7,0.7v8.2l0,0l0,0c0,1.3,1.1,2.4,2.4,2.4l0,0h2.7
			l0,0c1.3,0,2.4-1.1,2.4-2.4l0,0l0,0v-8.2c0-0.4,0.3-0.7,0.7-0.7h3.2c0.2,0,0.3,0.1,0.4,0.2c0.1,0.1,0.2,0.3,0.2,0.4l0.1,25.3
			C58.2,94.3,57.9,94.6,57.6,94.6z"/>
		<path class="st2" d="M49.9,76.4L49.9,76.4c0.6,0,1.2-0.5,1.2-1.2c0-0.6-0.5-1.2-1.2-1.2l0,0c-0.6,0-1.2,0.5-1.2,1.2
			S49.3,76.4,49.9,76.4z"/>
		<path class="st2" d="M88.6,66.3L88.6,66.3h-3.9c-0.2,0-0.3-0.1-0.5-0.2c-0.3-0.3-0.8-0.5-1.2-0.5l0,0h-4l0,0
			c-0.5,0-0.9,0.2-1.2,0.5c-0.1,0.1-0.3,0.2-0.5,0.2h-3.9l0,0c-1.3,0-2.4,1.1-2.4,2.4V94c0,1.3,1.1,2.4,2.4,2.4l0,0h15.3l0,0
			c1.3,0,2.4-1.1,2.4-2.4V68.7C91,67.3,90,66.3,88.6,66.3z M78.9,67.3l0.3-0.1h3.6l0.3,0.1l0,0v9.5c0,0.2-0.1,0.3-0.2,0.5
			c-0.1,0.1-0.3,0.2-0.4,0.2h-1.4h-1.4c-0.2,0-0.3-0.1-0.4-0.2s-0.2-0.3-0.2-0.5L78.9,67.3L78.9,67.3z M88.8,94.6h-7.7h-7.7
			c-0.4,0-0.7-0.3-0.7-0.7l0.1-25.3c0-0.2,0.1-0.3,0.2-0.4s0.3-0.2,0.4-0.2h3.2c0.4,0,0.7,0.3,0.7,0.7v8.2l0,0l0,0
			c0,1.3,1.1,2.4,2.4,2.4l0,0h2.7l0,0c1.3,0,2.4-1.1,2.4-2.4l0,0l0,0v-8.2c0-0.4,0.3-0.7,0.7-0.7h3.2c0.2,0,0.3,0.1,0.4,0.2
			s0.2,0.3,0.2,0.4l0.1,25.3C89.3,94.3,89,94.6,88.8,94.6z"/>
		<path class="st2" d="M81,76.4L81,76.4c0.6,0,1.2-0.5,1.2-1.2c0-0.6-0.5-1.2-1.2-1.2l0,0c-0.6,0-1.2,0.5-1.2,1.2S80.3,76.4,81,76.4
			z"/>
		<path class="st2" d="M18.8,63.7c0.6,0,1-0.4,1-1v-7.4h29.1v6.3c0,0.6,0.4,1,1,1s1-0.4,1-1v-6.3H80v7c0,0.6,0.4,1,1,1s1-0.4,1-1v-7
			c0-1.1-0.9-2-2-2H50.9v-5.2c0-0.6-0.4-1-1-1s-1,0.4-1,1v5.2H19.8c-1.1,0-2,0.9-2,2v7.4C17.8,63.2,18.3,63.7,18.8,63.7z"/>
	</g>
	<g>
		<g>
			<path class="st1" d="M18.8,93.2c3.3,0,6-2.7,6-6s-2.7-6-6-6s-6,2.7-6,6C12.9,90.5,15.5,93.2,18.8,93.2z M18.8,82.6
				c2.6,0,4.7,2.1,4.7,4.7S21.4,92,18.8,92c-2.6,0-4.7-2.1-4.7-4.7C14.1,84.7,16.2,82.6,18.8,82.6z"/>
			<path class="st1" d="M18.9,85.5L18.9,85.5L18.9,85.5L18.9,85.5c0.5,0,0.9,0.2,1.2,0.5c0.2,0.2,0.3,0.4,0.4,0.6l0.8-0.8
				c0.1-0.1,0.1-0.1,0.2-0.2c0.1-0.1,0.1-0.2,0.1-0.3c0-0.4-0.3-0.7-0.7-0.7h-4.7V86h1.6C18,85.7,18.4,85.5,18.9,85.5z"/>
			<path class="st1" d="M18.9,88.2c0.5,0,0.9-0.4,0.9-0.9s-0.4-0.9-0.9-0.9l0,0c-0.5,0-0.9,0.4-0.9,0.9
				C17.9,87.7,18.4,88.2,18.9,88.2L18.9,88.2z"/>
			<path class="st1" d="M18.9,89c-0.7,0-1.4-0.5-1.6-1.1l-0.9,0.9c-0.1,0.1-0.1,0.1-0.2,0.2c-0.1,0.1-0.1,0.2-0.1,0.3
				c0,0.4,0.3,0.7,0.7,0.7h4.7v-1.4h-1.6C19.7,88.8,19.3,89,18.9,89z"/>
		</g>
		<g>
			<path class="st1" d="M49.9,93.2c3.3,0,6-2.7,6-6s-2.7-6-6-6s-6,2.7-6,6S46.6,93.2,49.9,93.2z M49.9,82.6c2.6,0,4.7,2.1,4.7,4.7
				S52.5,92,49.9,92s-4.7-2.1-4.7-4.7S47.3,82.6,49.9,82.6z"/>
			<path class="st1" d="M50,85.5L50,85.5L50,85.5L50,85.5c0.5,0,0.9,0.2,1.2,0.5c0.2,0.2,0.3,0.4,0.4,0.6l0.8-0.8
				c0.1-0.1,0.1-0.1,0.2-0.2c0.1-0.1,0.1-0.2,0.1-0.3c0-0.4-0.3-0.7-0.7-0.7h-4.7V86h1.6C49.1,85.7,49.5,85.5,50,85.5z"/>
			<path class="st1" d="M50,88.2c0.5,0,0.9-0.4,0.9-0.9s-0.4-0.9-0.9-0.9l0,0c-0.5,0-0.9,0.4-0.9,0.9C49,87.7,49.4,88.2,50,88.2
				C49.9,88.2,50,88.2,50,88.2z"/>
			<path class="st1" d="M49.9,89c-0.7,0-1.4-0.5-1.6-1.1l-0.9,0.9c-0.1,0.1-0.1,0.1-0.2,0.2c-0.1,0.1-0.1,0.2-0.1,0.3
				c0,0.4,0.3,0.7,0.7,0.7h4.7v-1.4h-1.6C50.7,88.8,50.4,89,49.9,89z"/>
		</g>
		<g>
			<path class="st1" d="M81,93.2c3.3,0,6-2.7,6-6s-2.7-6-6-6s-6,2.7-6,6S77.8,93.2,81,93.2z M81,82.6c2.6,0,4.7,2.1,4.7,4.7
				S83.6,92,81,92s-4.7-2.1-4.7-4.7S78.4,82.6,81,82.6z"/>
			<path class="st1" d="M81,85.5L81,85.5L81,85.5L81,85.5c0.5,0,0.9,0.2,1.2,0.5c0.2,0.2,0.3,0.4,0.4,0.6l0.8-0.8
				c0.1-0.1,0.1-0.1,0.2-0.2s0.1-0.2,0.1-0.3c0-0.4-0.3-0.7-0.7-0.7h-4.7V86h1.6C80.3,85.7,80.6,85.5,81,85.5z"/>
			<path class="st1" d="M81,88.2c0.5,0,0.9-0.4,0.9-0.9s-0.4-0.9-0.9-0.9l0,0c-0.5,0-0.9,0.4-0.9,0.9C80.1,87.7,80.5,88.2,81,88.2
				L81,88.2z"/>
			<path class="st1" d="M81,89c-0.7,0-1.4-0.5-1.6-1.1l-0.9,0.9c-0.1,0.1-0.1,0.1-0.2,0.2s-0.1,0.2-0.1,0.3c0,0.4,0.3,0.7,0.7,0.7
				h4.7v-1.4H82C81.8,88.8,81.5,89,81,89z"/>
		</g>
	</g>
</g>
</svg>
