<!DOCTYPE svg PUBLIC "-//W3C//DTD SVG 20010904//EN" "http://www.w3.org/TR/2001/REC-SVG-20010904/DTD/svg10.dtd">
<svg version="1.0" xmlns="http://www.w3.org/2000/svg" width="512px" height="512px" viewBox="0 0 5120 5120" preserveAspectRatio="xMidYMid meet">
<g id="layer101" fill="#e6b150" stroke="none">
 <path d="M2355 5004 c-341 -34 -592 -104 -881 -244 -669 -324 -1167 -962 -1318 -1689 -41 -198 -51 -295 -50 -521 0 -277 24 -442 101 -705 199 -683 743 -1283 1413 -1558 309 -127 586 -181 930 -181 223 0 310 8 515 49 705 142 1334 620 1670 1268 119 231 199 468 245 728 28 157 38 476 21 640 -68 648 -377 1233 -876 1654 -325 274 -769 472 -1215 540 -100 16 -466 28 -555 19z"/>
 </g>
<g id="layer102" fill="#fefdfb" stroke="none">
 <path d="M2325 4609 c-243 -29 -463 -93 -674 -195 -347 -167 -626 -409 -837 -727 -361 -542 -438 -1253 -200 -1861 131 -335 305 -579 589 -824 59 -50 133 -128 184 -193 58 -73 95 -111 116 -118 75 -27 196 -3 239 45 74 83 58 252 -28 309 -18 12 -72 28 -128 38 -121 21 -150 36 -256 129 -308 270 -515 643 -590 1066 -69 387 12 817 222 1185 173 302 462 571 783 728 259 126 562 195 820 187 l100 -3 3 -457 2 -458 -114 0 -115 0 -3 284 c-2 156 -5 287 -9 290 -3 3 -54 -2 -115 -12 l-109 -17 -5 -290 c-3 -203 -9 -296 -17 -311 -7 -12 -59 -53 -115 -90 -57 -38 -132 -98 -168 -134 -193 -192 -284 -492 -235 -771 46 -268 167 -438 446 -629 l89 -61 0 -147 c0 -175 -4 -195 -34 -186 -64 20 -207 89 -282 135 -98 61 -261 211 -329 302 -165 218 -246 462 -246 736 0 214 36 370 130 561 55 113 104 166 216 229 90 52 119 88 129 157 22 164 -147 284 -300 212 -56 -26 -77 -57 -110 -168 -26 -84 -69 -177 -136 -295 -261 -459 -232 -1052 73 -1515 84 -127 261 -303 394 -392 110 -74 267 -152 390 -194 44 -15 85 -31 90 -36 6 -5 12 -124 15 -296 l5 -287 40 -8 c22 -4 132 -10 245 -14 235 -6 398 9 585 57 268 68 550 205 765 373 101 79 265 242 350 348 552 688 593 1676 100 2410 -100 148 -177 235 -342 386 -88 81 -189 183 -225 227 -35 45 -83 94 -106 109 -37 25 -49 28 -103 25 -82 -5 -132 -38 -168 -109 -34 -68 -35 -137 -3 -199 32 -63 58 -78 181 -101 61 -11 126 -29 147 -39 46 -24 233 -202 309 -296 92 -112 167 -229 230 -359 69 -142 109 -257 146 -426 26 -116 28 -139 28 -359 0 -266 -11 -343 -84 -563 -222 -666 -827 -1157 -1525 -1237 -100 -11 -241 -13 -296 -4 l-36 6 -6 230 c-4 127 -4 331 0 454 l6 224 109 0 c59 0 109 -1 110 -2 1 -2 4 -128 7 -280 3 -152 9 -280 13 -284 4 -3 57 -1 118 6 l110 14 0 190 c0 105 3 241 7 303 l6 112 71 47 c84 56 206 153 206 164 0 6 -69 69 -151 137 -14 12 -24 9 -70 -22 -84 -56 -207 -113 -284 -131 -151 -35 -345 -4 -482 78 -77 46 -182 151 -227 227 -66 113 -89 199 -89 331 0 144 28 242 104 354 192 287 545 385 844 234 33 -17 88 -48 122 -70 73 -46 71 -47 162 46 l65 65 -20 22 c-10 12 -57 47 -104 79 -154 104 -165 128 -155 317 4 73 8 133 9 133 1 0 34 -11 72 -24 255 -87 501 -294 649 -546 206 -353 212 -821 14 -1190 -54 -100 -77 -123 -185 -181 -132 -71 -154 -101 -154 -208 0 -95 60 -166 162 -191 38 -10 56 -9 103 5 72 21 98 49 132 144 16 42 50 119 77 171 158 306 173 339 198 435 43 162 53 240 52 415 0 259 -46 449 -159 668 -72 138 -151 246 -261 358 -162 163 -289 244 -559 355 l-140 58 -6 98 c-4 54 -7 186 -8 294 l-1 197 -37 6 c-70 11 -467 15 -548 5z"/>
 </g>

</svg>