<?xml version="1.0" encoding="utf-8"?>
<!-- Generator: Adobe Illustrator 24.1.1, SVG Export Plug-In . SVG Version: 6.00 Build 0)  -->
<!DOCTYPE svg PUBLIC "-//W3C//DTD SVG 1.1//EN" "http://www.w3.org/Graphics/SVG/1.1/DTD/svg11.dtd" [
	<!ENTITY ns_extend "http://ns.adobe.com/Extensibility/1.0/">
	<!ENTITY ns_ai "http://ns.adobe.com/AdobeIllustrator/10.0/">
	<!ENTITY ns_graphs "http://ns.adobe.com/Graphs/1.0/">
	<!ENTITY ns_vars "http://ns.adobe.com/Variables/1.0/">
	<!ENTITY ns_imrep "http://ns.adobe.com/ImageReplacement/1.0/">
	<!ENTITY ns_sfw "http://ns.adobe.com/SaveForWeb/1.0/">
	<!ENTITY ns_custom "http://ns.adobe.com/GenericCustomNamespace/1.0/">
	<!ENTITY ns_adobe_xpath "http://ns.adobe.com/XPath/1.0/">
]>
<svg version="1.1" id="ic_empty_Dark_transactions" xmlns:x="&ns_extend;" xmlns:i="&ns_ai;" xmlns:graph="&ns_graphs;"
	 xmlns="http://www.w3.org/2000/svg" xmlns:xlink="http://www.w3.org/1999/xlink" x="0px" y="0px" viewBox="0 0 100 100"
	 style="enable-background:new 0 0 100 100;" xml:space="preserve">
<style type="text/css">
	.st0{fill:none;}
	.st1{fill:#ecb355;}
	.st2{fill:#00D3D5;}
	.st3{fill:#FFFFFF;}
</style>
<metadata>
	<sfw  xmlns="&ns_sfw;">
		<slices></slices>
		<sliceSourceBounds  bottomLeftOrigin="true" height="100" width="100" x="0" y="0"></sliceSourceBounds>
	</sfw>
</metadata>
<path id="Rectangle_4697" class="st0" d="M0,0h100v100H0V0z"/>
<g>
	<circle class="st1" cx="49.9" cy="50" r="24"/>
	<g>
		<path class="st2" d="M49.9,75c-13.8,0-25-11.2-25-25s11.2-25,25-25c13.8,0,25,11.2,25,25S63.7,75,49.9,75z M49.9,27
			c-12.7,0-23,10.3-23,23c0,12.7,10.3,23,23,23s23-10.3,23-23C72.9,37.3,62.6,27,49.9,27z"/>
	</g>
	<circle class="st1" cx="50" cy="50" r="17.9"/>
	<g>
		<path class="st3" d="M49.9,70.4c11.3,0,20.4-9.2,20.4-20.4c0-11.3-9.2-20.4-20.4-20.4c-11.3,0-20.4,9.2-20.4,20.4
			C29.5,61.3,38.6,70.4,49.9,70.4z M49.9,33.9C58.8,33.9,66,41.1,66,50s-7.2,16.1-16.1,16.1S33.8,58.9,33.8,50S41,33.9,49.9,33.9z"
			/>
		<path class="st3" d="M50.1,44L50.1,44L50.1,44L50.1,44c1.6,0,3.1,0.6,4.2,1.7c0.6,0.6,1,1.2,1.3,2l2.7-2.7
			c0.3-0.3,0.4-0.5,0.6-0.8c0.2-0.4,0.3-0.8,0.3-1.2c0-1.3-1.1-2.4-2.4-2.4H40.6v4.8h5.6C47.2,44.5,48.6,44,50.1,44z"/>
		<path class="st3" d="M50.1,53.1c1.7,0,3.2-1.4,3.2-3.2c0-1.7-1.4-3.2-3.2-3.2l0,0c-1.7,0-3.2,1.4-3.2,3.2S48.3,53.1,50.1,53.1
			L50.1,53.1z"/>
		<path class="st3" d="M50.1,55.9c-2.5,0-4.7-1.6-5.6-3.9l-3,3c-0.3,0.3-0.4,0.5-0.6,0.8c-0.2,0.4-0.3,0.8-0.3,1.2
			c0,1.3,1.1,2.4,2.4,2.4h16.2v-4.8h-5.4C52.8,55.4,51.5,55.9,50.1,55.9z"/>
	</g>
	<g>
		<g>
			<path class="st2" d="M16,57c-0.6,0-1-0.4-1-1V29.5c0-0.1-0.1-0.3-0.3-0.3H9.4c-0.9,0-1.7-0.5-2.1-1.3s-0.2-1.7,0.3-2.4L22.2,8.6
				c0.4-0.5,1-0.8,1.7-0.8c0.6,0,1.3,0.3,1.7,0.8L40,25.1c0.6,0.7,0.7,1.6,0.4,2.4c-0.4,0.8-1.2,1.3-2.1,1.3h-8c-0.6,0-1-0.4-1-1
				s0.4-1,1-1h8c0.1,0,0.2-0.1,0.2-0.2s0-0.2,0-0.3L24.1,9.9c-0.1-0.1-0.2-0.1-0.2-0.1c-0.1,0-0.1,0-0.2,0.1L9.2,26.8
				c-0.1,0.1-0.1,0.2,0,0.3c0,0.1,0.1,0.2,0.2,0.2h5.3c1.2,0,2.3,1,2.3,2.3V56C17,56.6,16.6,57,16,57z"/>
		</g>
		<g>
			<path class="st1" d="M23.9,23.7h-6.7c-0.3,0-0.4-0.3-0.2-0.5l6.7-7.9c0.1-0.1,0.4-0.1,0.5,0l6.7,7.9c0.2,0.2,0,0.5-0.2,0.5H23.9z
				"/>
		</g>
	</g>
	<g>
		<g>
			<path class="st2" d="M75.3,92.6c-0.7,0-1.3-0.3-1.7-0.8L59.2,75.2c-0.6-0.7-0.7-1.6-0.4-2.4c0.4-0.8,1.2-1.3,2.1-1.3h8
				c0.6,0,1,0.4,1,1s-0.4,1-1,1h-8c-0.1,0-0.2,0.1-0.2,0.2s0,0.2,0,0.3l14.4,16.6c0.1,0.1,0.1,0.1,0.2,0.1s0.1,0,0.2-0.1l14.5-17
				c0.1-0.1,0.1-0.2,0-0.3c0-0.1-0.1-0.2-0.2-0.2h-5.3c-1.2,0-2.3-1-2.3-2.3V44.4c0-0.6,0.4-1,1-1s1,0.4,1,1v26.5
				c0,0.1,0.1,0.3,0.3,0.3h5.3c0.9,0,1.7,0.5,2.1,1.3s0.2,1.7-0.3,2.4L77,91.8C76.6,92.3,76,92.6,75.3,92.6L75.3,92.6z"/>
		</g>
		<g>
			<path class="st1" d="M75.3,76.7H82c0.3,0,0.4,0.3,0.2,0.5l-6.7,7.9c-0.1,0.1-0.4,0.1-0.5,0l-6.7-7.9c-0.2-0.2,0-0.5,0.2-0.5H75.3
				z"/>
		</g>
	</g>
</g>
</svg>
