<?xml version="1.0" encoding="utf-8"?>
<!-- Generator: Adobe Illustrator 24.1.1, SVG Export Plug-In . SVG Version: 6.00 Build 0)  -->
<!DOCTYPE svg PUBLIC "-//W3C//DTD SVG 1.1//EN" "http://www.w3.org/Graphics/SVG/1.1/DTD/svg11.dtd" [
	<!ENTITY ns_extend "http://ns.adobe.com/Extensibility/1.0/">
	<!ENTITY ns_ai "http://ns.adobe.com/AdobeIllustrator/10.0/">
	<!ENTITY ns_graphs "http://ns.adobe.com/Graphs/1.0/">
	<!ENTITY ns_vars "http://ns.adobe.com/Variables/1.0/">
	<!ENTITY ns_imrep "http://ns.adobe.com/ImageReplacement/1.0/">
	<!ENTITY ns_sfw "http://ns.adobe.com/SaveForWeb/1.0/">
	<!ENTITY ns_custom "http://ns.adobe.com/GenericCustomNamespace/1.0/">
	<!ENTITY ns_adobe_xpath "http://ns.adobe.com/XPath/1.0/">
]>
<svg version="1.1" id="ic_empty_dark_multisend" xmlns:x="&ns_extend;" xmlns:i="&ns_ai;" xmlns:graph="&ns_graphs;"
	 xmlns="http://www.w3.org/2000/svg" xmlns:xlink="http://www.w3.org/1999/xlink" x="0px" y="0px" viewBox="0 0 100 100"
	 style="enable-background:new 0 0 100 100;" xml:space="preserve">
<style type="text/css">
	.st0{fill:#00D3D5;}
	.st1{fill:none;}
	.st2{fill:#ecb355;}
</style>
<metadata>
	<sfw  xmlns="&ns_sfw;">
		<slices></slices>
		<sliceSourceBounds  bottomLeftOrigin="true" height="100" width="100" x="0" y="0"></sliceSourceBounds>
	</sfw>
</metadata>
<g>
	<rect x="16.2" y="66.6" class="st0" width="5.5" height="11.3"/>
	<rect x="47.3" y="66.6" class="st0" width="5.5" height="11.3"/>
	<rect x="78.4" y="66.6" class="st0" width="5.5" height="11.3"/>
	<path id="Rectangle_4724" class="st1" d="M0,0h100v100H0V0z"/>
	<g>
		<path class="st2" d="M50,44.5c11.3,0,20.4-9.2,20.4-20.4c0-11.3-9.2-20.4-20.4-20.4c-11.3,0-20.4,9.2-20.4,20.4
			C29.6,35.4,38.7,44.5,50,44.5z M50,8c8.9,0,16.1,7.2,16.1,16.1S58.9,40.2,50,40.2S33.9,33,33.9,24.1S41.1,8,50,8z"/>
		<path class="st2" d="M50.2,18.1L50.2,18.1L50.2,18.1L50.2,18.1c1.6,0,3.1,0.6,4.2,1.7c0.6,0.6,1,1.2,1.3,2l2.7-2.7
			c0.3-0.3,0.4-0.5,0.6-0.8c0.2-0.4,0.3-0.8,0.3-1.2c0-1.3-1.1-2.4-2.4-2.4H40.7v4.8h5.6C47.3,18.6,48.7,18.1,50.2,18.1z"/>
		<path class="st2" d="M50.2,27.2c1.7,0,3.2-1.4,3.2-3.2c0-1.7-1.4-3.2-3.2-3.2l0,0c-1.7,0-3.2,1.4-3.2,3.2
			C47,25.8,48.4,27.2,50.2,27.2L50.2,27.2z"/>
		<path class="st2" d="M50.2,30c-2.5,0-4.7-1.6-5.6-3.9l-3,3c-0.3,0.3-0.4,0.5-0.6,0.8c-0.2,0.4-0.3,0.8-0.3,1.2
			c0,1.3,1.1,2.4,2.4,2.4h16.2v-4.8h-5.4C52.9,29.5,51.6,30,50.2,30z"/>
		<path class="st2" d="M26.5,66.3L26.5,66.3h-3.9c-0.2,0-0.3-0.1-0.5-0.2c-0.3-0.3-0.8-0.5-1.2-0.5l0,0h-4l0,0
			c-0.5,0-0.9,0.2-1.2,0.5c-0.1,0.1-0.3,0.2-0.5,0.2h-3.9l0,0c-1.3,0-2.4,1.1-2.4,2.4V94c0,1.3,1.1,2.4,2.4,2.4l0,0h15.3l0,0
			c1.3,0,2.4-1.1,2.4-2.4V68.7C29,67.3,27.9,66.3,26.5,66.3z M16.8,67.3l0.3-0.1h3.6l0.3,0.1l0,0v9.5c0,0.2-0.1,0.3-0.2,0.5
			c-0.1,0.1-0.3,0.2-0.4,0.2H19h-1.4c-0.2,0-0.3-0.1-0.4-0.2S17,77,17,76.8L16.8,67.3L16.8,67.3z M26.6,94.6h-7.7h-7.7
			c-0.4,0-0.7-0.3-0.7-0.7l0.1-25.3c0-0.2,0.1-0.3,0.2-0.4c0.1-0.1,0.3-0.2,0.4-0.2h3.2c0.4,0,0.7,0.3,0.7,0.7v8.2l0,0l0,0
			c0,1.3,1.1,2.4,2.4,2.4l0,0h2.7l0,0c1.3,0,2.4-1.1,2.4-2.4l0,0l0,0v-8.2c0-0.4,0.3-0.7,0.7-0.7h3.2c0.2,0,0.3,0.1,0.4,0.2
			s0.2,0.3,0.2,0.4l0.1,25.3C27.2,94.3,27,94.6,26.6,94.6z"/>
		<path class="st2" d="M18.9,76.4L18.9,76.4c0.6,0,1.2-0.5,1.2-1.2c0-0.6-0.5-1.2-1.2-1.2l0,0c-0.6,0-1.2,0.5-1.2,1.2
			C17.7,75.9,18.3,76.4,18.9,76.4z"/>
		<path class="st2" d="M57.6,66.3L57.6,66.3h-3.9c-0.2,0-0.3-0.1-0.5-0.2c-0.3-0.3-0.8-0.5-1.2-0.5l0,0h-4l0,0
			c-0.5,0-0.9,0.2-1.2,0.5c-0.1,0.1-0.3,0.2-0.5,0.2h-3.9l0,0c-1.3,0-2.4,1.1-2.4,2.4V94c0,1.3,1.1,2.4,2.4,2.4l0,0h15.3l0,0
			c1.3,0,2.4-1.1,2.4-2.4V68.7C60,67.3,59,66.3,57.6,66.3z M47.9,67.3l0.3-0.1h3.6l0.3,0.1v9.5c0,0.2-0.1,0.3-0.2,0.5
			c-0.1,0.1-0.3,0.2-0.4,0.2h-1.4c-0.2,0-0.4,0-0.6,0c-0.5,0-0.9,0.1-1.3-0.2C47.9,77,48,76.5,48,76.1c0-0.5,0-1.1,0-1.6
			c0-1.4,0-2.8,0-4.2C48,69.3,48,68.4,47.9,67.3C47.9,67.4,47.9,67.3,47.9,67.3z M57.7,94.6H50h-7.7c-0.4,0-0.7-0.3-0.7-0.7
			l0.1-25.3c0-0.2,0.1-0.3,0.2-0.4c0.1-0.1,0.3-0.2,0.4-0.2h3.2c0.4,0,0.7,0.3,0.7,0.7v8.2l0,0l0,0c0,1.3,1.1,2.4,2.4,2.4l0,0h2.7
			l0,0c1.3,0,2.4-1.1,2.4-2.4l0,0l0,0v-8.2c0-0.4,0.3-0.7,0.7-0.7h3.2c0.2,0,0.3,0.1,0.4,0.2c0.1,0.1,0.2,0.3,0.2,0.4l0.1,25.3
			C58.3,94.3,58,94.6,57.7,94.6z"/>
		<path class="st2" d="M50,76.4L50,76.4c0.6,0,1.2-0.5,1.2-1.2c0-0.6-0.5-1.2-1.2-1.2l0,0c-0.6,0-1.2,0.5-1.2,1.2S49.4,76.4,50,76.4
			z"/>
		<path class="st2" d="M88.7,66.3L88.7,66.3h-3.9c-0.2,0-0.3-0.1-0.5-0.2c-0.3-0.3-0.8-0.5-1.2-0.5l0,0h-4l0,0
			c-0.5,0-0.9,0.2-1.2,0.5c-0.1,0.1-0.3,0.2-0.5,0.2h-3.9l0,0c-1.3,0-2.4,1.1-2.4,2.4V94c0,1.3,1.1,2.4,2.4,2.4l0,0h15.3l0,0
			c1.3,0,2.4-1.1,2.4-2.4V68.7C91.1,67.3,90.1,66.3,88.7,66.3z M79,67.3l0.3-0.1h3.6l0.3,0.1l0,0v9.5c0,0.2-0.1,0.3-0.2,0.5
			c-0.1,0.1-0.3,0.2-0.4,0.2h-1.4h-1.4c-0.2,0-0.3-0.1-0.4-0.2s-0.2-0.3-0.2-0.5L79,67.3L79,67.3z M88.8,94.6h-7.7h-7.7
			c-0.4,0-0.7-0.3-0.7-0.7l0.1-25.3c0-0.2,0.1-0.3,0.2-0.4s0.3-0.2,0.4-0.2h3.2c0.4,0,0.7,0.3,0.7,0.7v8.2l0,0l0,0
			c0,1.3,1.1,2.4,2.4,2.4l0,0h2.7l0,0c1.3,0,2.4-1.1,2.4-2.4l0,0l0,0v-8.2c0-0.4,0.3-0.7,0.7-0.7h3.2c0.2,0,0.3,0.1,0.4,0.2
			s0.2,0.3,0.2,0.4l0.1,25.3C89.4,94.3,89.1,94.6,88.8,94.6z"/>
		<path class="st2" d="M81.1,76.4L81.1,76.4c0.6,0,1.2-0.5,1.2-1.2c0-0.6-0.5-1.2-1.2-1.2l0,0c-0.6,0-1.2,0.5-1.2,1.2
			S80.4,76.4,81.1,76.4z"/>
		<path class="st2" d="M18.9,63.7c0.6,0,1-0.4,1-1v-7.4H49v6.3c0,0.6,0.4,1,1,1s1-0.4,1-1v-6.3h29.1v7c0,0.6,0.4,1,1,1s1-0.4,1-1v-7
			c0-1.1-0.9-2-2-2H51v-5.2c0-0.6-0.4-1-1-1s-1,0.4-1,1v5.2H19.9c-1.1,0-2,0.9-2,2v7.4C17.9,63.2,18.4,63.7,18.9,63.7z"/>
	</g>
	<g>
		<g>
			<path class="st2" d="M18.9,93.2c3.3,0,6-2.7,6-6s-2.7-6-6-6s-6,2.7-6,6C13,90.5,15.6,93.2,18.9,93.2z M18.9,82.6
				c2.6,0,4.7,2.1,4.7,4.7S21.5,92,18.9,92s-4.7-2.1-4.7-4.7C14.2,84.7,16.3,82.6,18.9,82.6z"/>
			<path class="st2" d="M19,85.5L19,85.5L19,85.5L19,85.5c0.5,0,0.9,0.2,1.2,0.5c0.2,0.2,0.3,0.4,0.4,0.6l0.8-0.8
				c0.1-0.1,0.1-0.1,0.2-0.2s0.1-0.2,0.1-0.3c0-0.4-0.3-0.7-0.7-0.7h-4.7V86h1.6C18.1,85.7,18.5,85.5,19,85.5z"/>
			<path class="st2" d="M19,88.2c0.5,0,0.9-0.4,0.9-0.9s-0.4-0.9-0.9-0.9l0,0c-0.5,0-0.9,0.4-0.9,0.9C18,87.7,18.5,88.2,19,88.2
				L19,88.2z"/>
			<path class="st2" d="M19,89c-0.7,0-1.4-0.5-1.6-1.1l-0.9,0.9c-0.1,0.1-0.1,0.1-0.2,0.2s-0.1,0.2-0.1,0.3c0,0.4,0.3,0.7,0.7,0.7
				h4.7v-1.4H20C19.8,88.8,19.4,89,19,89z"/>
		</g>
		<g>
			<path class="st2" d="M50,93.2c3.3,0,6-2.7,6-6s-2.7-6-6-6s-6,2.7-6,6S46.7,93.2,50,93.2z M50,82.6c2.6,0,4.7,2.1,4.7,4.7
				S52.6,92,50,92s-4.7-2.1-4.7-4.7S47.4,82.6,50,82.6z"/>
			<path class="st2" d="M50.1,85.5L50.1,85.5L50.1,85.5L50.1,85.5c0.5,0,0.9,0.2,1.2,0.5c0.2,0.2,0.3,0.4,0.4,0.6l0.8-0.8
				c0.1-0.1,0.1-0.1,0.2-0.2c0.1-0.1,0.1-0.2,0.1-0.3c0-0.4-0.3-0.7-0.7-0.7h-4.7V86H49C49.2,85.7,49.6,85.5,50.1,85.5z"/>
			<path class="st2" d="M50.1,88.2c0.5,0,0.9-0.4,0.9-0.9s-0.4-0.9-0.9-0.9l0,0c-0.5,0-0.9,0.4-0.9,0.9
				C49.1,87.7,49.5,88.2,50.1,88.2C50,88.2,50.1,88.2,50.1,88.2z"/>
			<path class="st2" d="M50,89c-0.7,0-1.4-0.5-1.6-1.1l-0.9,0.9c-0.1,0.1-0.1,0.1-0.2,0.2c-0.1,0.1-0.1,0.2-0.1,0.3
				c0,0.4,0.3,0.7,0.7,0.7h4.7v-1.4H51C50.8,88.8,50.5,89,50,89z"/>
		</g>
		<g>
			<path class="st2" d="M81.1,93.2c3.3,0,6-2.7,6-6s-2.7-6-6-6s-6,2.7-6,6S77.8,93.2,81.1,93.2z M81.1,82.6c2.6,0,4.7,2.1,4.7,4.7
				S83.7,92,81.1,92s-4.7-2.1-4.7-4.7S78.5,82.6,81.1,82.6z"/>
			<path class="st2" d="M81.1,85.5L81.1,85.5L81.1,85.5L81.1,85.5c0.5,0,0.9,0.2,1.2,0.5c0.2,0.2,0.3,0.4,0.4,0.6l0.8-0.8
				c0.1-0.1,0.1-0.1,0.2-0.2s0.1-0.2,0.1-0.3c0-0.4-0.3-0.7-0.7-0.7h-4.7V86H80C80.3,85.7,80.7,85.5,81.1,85.5z"/>
			<path class="st2" d="M81.1,88.2c0.5,0,0.9-0.4,0.9-0.9s-0.4-0.9-0.9-0.9l0,0c-0.5,0-0.9,0.4-0.9,0.9
				C80.2,87.7,80.6,88.2,81.1,88.2L81.1,88.2z"/>
			<path class="st2" d="M81.1,89c-0.7,0-1.4-0.5-1.6-1.1l-0.9,0.9c-0.1,0.1-0.1,0.1-0.2,0.2s-0.1,0.2-0.1,0.3c0,0.4,0.3,0.7,0.7,0.7
				h4.7v-1.4h-1.6C81.9,88.8,81.6,89,81.1,89z"/>
		</g>
	</g>
</g>
</svg>
